# xmcd
#
# Track frame offsets:
#	300
#	11015
#	22824
#	35881
#	49578
#	67161
#	80929
#	93403
#	104925
#	116462
#	133331
#	145852
#	159606
#
# Disc length: 2265 seconds
#
# Revision: 0
# Processed by: cddbd v1.5.1PL0 Copyright (c) Steve Scherf et al.
# Submitted via: audiograbber 1.83.01
#
DISCID=c108d50d
DTITLE=Nová Sekce - The Very Best Of
DYEAR=1900
DGENRE=
TTITLE0=Kridla
TTITLE1=Poradnej flam
TTITLE2=Requiem
TTITLE3=Sam si varit a sam si prat
TTITLE4=Tulaku kral
TTITLE5=Jedna z prava, druha z leva
TTITLE6=Opustim te lip
TTITLE7=V baru u Sama
TTITLE8=Az se k ranu rozedni
TTITLE9=Blaznivej sen
TTITLE10=Hrat a pit
TTITLE11=Vecer vanocni
TTITLE12=Cadillac In Model "A"
EXTD=
EXTT0=
EXTT1=
EXTT2=
EXTT3=
EXTT4=
EXTT5=
EXTT6=
EXTT7=
EXTT8=
EXTT9=
EXTT10=
EXTT11=
EXTT12=
PLAYORDER=
